<svg width="50" height="62" viewBox="0 0 50 62" fill="none" xmlns="http://www.w3.org/2000/svg">
<path d="M25.726 44.274C26.2247 44.274 26.5693 44.2447 26.76 44.186C26.9653 44.1273 27.0973 44.0247 27.156 43.878C27.2147 43.7167 27.244 43.438 27.244 43.042V32.46C27.244 32.0787 27.2073 31.8073 27.134 31.646C27.0753 31.47 26.9433 31.3527 26.738 31.294C26.5327 31.2353 26.1953 31.206 25.726 31.206V30.48H32.48C34.4453 30.48 35.89 30.788 36.814 31.404C37.738 32.0053 38.2 32.8853 38.2 34.044C38.2 35.1 37.8553 35.9287 37.166 36.53C36.4767 37.1313 35.5747 37.52 34.46 37.696V37.74C35.3547 37.8867 36 38.1727 36.396 38.598C36.8067 39.0087 37.1147 39.7127 37.32 40.71L37.584 41.942C37.716 42.5727 37.848 43.0493 37.98 43.372C38.112 43.68 38.2953 43.9073 38.53 44.054C38.7793 44.2007 39.1313 44.274 39.586 44.274V45H35.252C35.0467 44.8533 34.8487 44.5893 34.658 44.208C34.4673 43.8267 34.3207 43.416 34.218 42.976L33.558 39.94C33.4407 39.3827 33.2647 38.9647 33.03 38.686C32.7953 38.4073 32.4287 38.268 31.93 38.268H31.028V43.042C31.028 43.4233 31.0573 43.6947 31.116 43.856C31.1893 44.0173 31.3213 44.1273 31.512 44.186C31.7027 44.2447 32.018 44.274 32.458 44.274V45H25.726V44.274ZM31.644 37.388C32.6267 37.388 33.3453 37.146 33.8 36.662C34.2547 36.178 34.482 35.3933 34.482 34.308C34.482 33.2813 34.2693 32.526 33.844 32.042C33.4333 31.5433 32.766 31.294 31.842 31.294C31.5047 31.294 31.2847 31.3453 31.182 31.448C31.0793 31.536 31.028 31.7413 31.028 32.064V37.388H31.644Z" fill="white"/>
<line x1="4.64645" y1="52.6464" x2="47.6464" y2="9.64645" stroke="white"/>
<path d="M10.726 30.274C11.2247 30.274 11.5767 30.2447 11.782 30.186C11.9873 30.1127 12.112 30.0027 12.156 29.856C12.2 29.7093 12.222 29.438 12.222 29.042V18.482C12.222 18.0713 12.1927 17.7927 12.134 17.646C12.09 17.4847 11.9653 17.3747 11.76 17.316C11.5693 17.2427 11.2247 17.206 10.726 17.206V16.48H17.502V17.206C17.0033 17.206 16.6513 17.2427 16.446 17.316C16.2407 17.3747 16.116 17.4847 16.072 17.646C16.028 17.7927 16.006 18.0713 16.006 18.482V22.97H21.418V18.482C21.418 18.0713 21.3887 17.7927 21.33 17.646C21.286 17.4847 21.1613 17.3747 20.956 17.316C20.7653 17.2427 20.4207 17.206 19.922 17.206V16.48H26.676V17.206C26.1773 17.206 25.8253 17.2427 25.62 17.316C25.4293 17.3747 25.312 17.4847 25.268 17.646C25.224 17.7927 25.202 18.0713 25.202 18.482V29.042C25.202 29.4233 25.224 29.6947 25.268 29.856C25.3267 30.0173 25.4513 30.1273 25.642 30.186C25.8473 30.2447 26.192 30.274 26.676 30.274V31H19.922V30.274C20.4353 30.274 20.7873 30.2447 20.978 30.186C21.1833 30.1127 21.308 30.0027 21.352 29.856C21.396 29.7093 21.418 29.438 21.418 29.042V23.828H16.006V29.042C16.006 29.4233 16.028 29.6947 16.072 29.856C16.1307 30.0173 16.2553 30.1273 16.446 30.186C16.6513 30.2447 17.0033 30.274 17.502 30.274V31H10.726V30.274Z" fill="white"/>
</svg>
