<svg width="240" height="33" viewBox="0 0 240 33" fill="none" xmlns="http://www.w3.org/2000/svg">
<path d="M68 0C59.1648 0 52 7.16479 52 16C52 24.8352 59.1648 32 68 32C76.8352 32 84 24.8352 84 16C84 7.16479 76.8352 0 68 0ZM75.3054 12.4751C75.3125 12.6326 75.3159 12.7908 75.3159 12.9497C75.3159 17.8025 71.6221 23.3984 64.8669 23.3987H64.8672H64.8669C62.793 23.3987 60.863 22.7908 59.2378 21.749C59.5251 21.783 59.8176 21.7998 60.1138 21.7998C61.8345 21.7998 63.418 21.2129 64.675 20.2278C63.0674 20.198 61.7119 19.1362 61.2441 17.677C61.468 17.72 61.6982 17.7434 61.9343 17.7434C62.2695 17.7434 62.5942 17.6982 62.9028 17.614C61.2224 17.2776 59.9565 15.7925 59.9565 14.0142C59.9565 13.9976 59.9565 13.9827 59.957 13.9673C60.4519 14.2424 61.0178 14.408 61.6204 14.4265C60.6343 13.7686 59.9861 12.6438 59.9861 11.3696C59.9861 10.6968 60.168 10.0664 60.4834 9.52368C62.2944 11.7458 65.001 13.2073 68.0532 13.3608C67.9902 13.0918 67.9578 12.8115 67.9578 12.5234C67.9578 10.4961 69.6025 8.85132 71.6306 8.85132C72.687 8.85132 73.6411 9.29785 74.3113 10.0117C75.1479 9.84668 75.9336 9.54102 76.6433 9.12036C76.3687 9.97754 75.7866 10.6968 75.0283 11.1516C75.7712 11.0627 76.4792 10.8657 77.1372 10.5732C76.6458 11.3098 76.0225 11.9568 75.3054 12.4751Z" fill="#534E4A"/>
<path d="M120 1C111.165 1 104 8.16479 104 17C104 25.8352 111.165 33 120 33C128.835 33 136 25.8352 136 17C136 8.16479 128.835 1 120 1ZM115.351 25.1875H111.454V13.4641H115.351V25.1875ZM113.402 11.8633H113.377C112.069 11.8633 111.224 10.9631 111.224 9.83813C111.224 8.68774 112.095 7.8125 113.428 7.8125C114.761 7.8125 115.582 8.68774 115.607 9.83813C115.607 10.9631 114.761 11.8633 113.402 11.8633ZM129.401 25.1875H125.505V18.9158C125.505 17.3396 124.941 16.2646 123.531 16.2646C122.455 16.2646 121.813 16.9897 121.532 17.6897C121.429 17.9402 121.404 18.2903 121.404 18.6406V25.1875H117.507C117.507 25.1875 117.558 14.564 117.507 13.4641H121.404V15.124C121.921 14.3252 122.848 13.189 124.915 13.189C127.479 13.189 129.401 14.8645 129.401 18.4653V25.1875Z" fill="#534E4A"/>
<g clip-path="url(#clip0)">
<path d="M170.007 19.9975L175.212 17L170.007 14.0024V19.9975Z" fill="#534E4A"/>
<path d="M172 1C163.165 1 156 8.16479 156 17C156 25.8352 163.165 33 172 33C180.835 33 188 25.8352 188 17C188 8.16479 180.835 1 172 1ZM181.998 17.0164C181.998 17.0164 181.998 20.2612 181.586 21.8259C181.355 22.6824 180.68 23.3577 179.823 23.5881C178.259 24 172 24 172 24C172 24 165.758 24 164.177 23.5718C163.32 23.3413 162.645 22.6658 162.414 21.8093C162.002 20.2612 162.002 17 162.002 17C162.002 17 162.002 13.7554 162.414 12.1907C162.645 11.3342 163.336 10.6423 164.177 10.4119C165.741 10 172 10 172 10C172 10 178.259 10 179.823 10.4282C180.68 10.6587 181.355 11.3342 181.586 12.1907C182.014 13.7554 181.998 17.0164 181.998 17.0164Z" fill="#534E4A"/>
</g>
<path d="M227.062 17C227.062 18.6914 225.691 20.0625 224 20.0625C222.309 20.0625 220.938 18.6914 220.938 17C220.938 15.3086 222.309 13.9375 224 13.9375C225.691 13.9375 227.062 15.3086 227.062 17Z" fill="#534E4A"/>
<path d="M231.162 11.5815C231.015 11.1826 230.78 10.8215 230.475 10.5251C230.178 10.22 229.818 9.98511 229.418 9.83789C229.095 9.71216 228.608 9.5625 227.713 9.52173C226.744 9.47754 226.453 9.46802 224 9.46802C221.547 9.46802 221.256 9.47729 220.287 9.52148C219.392 9.5625 218.905 9.71216 218.582 9.83789C218.182 9.98511 217.821 10.22 217.525 10.5251C217.22 10.8215 216.985 11.1824 216.838 11.5815C216.712 11.9053 216.562 12.3918 216.521 13.2876C216.477 14.2563 216.468 14.5469 216.468 17.0002C216.468 19.4534 216.477 19.7439 216.521 20.7129C216.562 21.6086 216.712 22.095 216.838 22.4187C216.985 22.8179 217.22 23.1787 217.525 23.4751C217.821 23.7803 218.182 24.0151 218.581 24.1624C218.905 24.2883 219.392 24.438 220.287 24.4788C221.256 24.5229 221.546 24.5322 224 24.5322C226.453 24.5322 226.744 24.5229 227.712 24.4788C228.608 24.438 229.095 24.2883 229.418 24.1624C230.22 23.8533 230.853 23.22 231.162 22.4187C231.288 22.095 231.438 21.6086 231.479 20.7129C231.523 19.7439 231.532 19.4534 231.532 17.0002C231.532 14.5469 231.523 14.2563 231.479 13.2876C231.438 12.3918 231.288 11.9053 231.162 11.5815ZM224 21.7178C221.394 21.7178 219.282 19.6057 219.282 17C219.282 14.3943 221.394 12.2822 224 12.2822C226.605 12.2822 228.718 14.3943 228.718 17C228.718 19.6057 226.605 21.7178 224 21.7178ZM228.904 13.1982C228.295 13.1982 227.802 12.7046 227.802 12.0957C227.802 11.4868 228.295 10.9932 228.904 10.9932C229.513 10.9932 230.007 11.4868 230.007 12.0957C230.007 12.7046 229.513 13.1982 228.904 13.1982Z" fill="#534E4A"/>
<path d="M224 1C215.165 1 208 8.16479 208 17C208 25.8352 215.165 33 224 33C232.835 33 240 25.8352 240 17C240 8.16479 232.835 1 224 1ZM233.132 20.7878C233.088 21.7659 232.932 22.4336 232.705 23.0181C232.228 24.2522 231.252 25.2278 230.018 25.7051C229.434 25.9321 228.766 26.0874 227.788 26.1321C226.808 26.1768 226.495 26.1875 224 26.1875C221.505 26.1875 221.192 26.1768 220.212 26.1321C219.234 26.0874 218.566 25.9321 217.982 25.7051C217.369 25.4744 216.814 25.1128 216.355 24.6453C215.887 24.1865 215.526 23.6311 215.295 23.0181C215.068 22.4338 214.913 21.7659 214.868 20.7881C214.823 19.8081 214.812 19.4951 214.812 17C214.812 14.5049 214.823 14.1919 214.868 13.2122C214.912 12.2341 215.068 11.5664 215.295 10.9819C215.525 10.3689 215.887 9.81348 216.355 9.35474C216.813 8.88721 217.369 8.52563 217.982 8.29492C218.566 8.06787 219.234 7.9126 220.212 7.86792C221.192 7.82324 221.505 7.8125 224 7.8125C226.495 7.8125 226.808 7.82324 227.788 7.86816C228.766 7.9126 229.434 8.06787 230.018 8.29468C230.631 8.52539 231.187 8.88721 231.646 9.35474C232.113 9.81372 232.475 10.3689 232.705 10.9819C232.932 11.5664 233.088 12.2341 233.132 13.2122C233.177 14.1919 233.188 14.5049 233.188 17C233.188 19.4951 233.177 19.8081 233.132 20.7878Z" fill="#534E4A"/>
<path fill-rule="evenodd" clip-rule="evenodd" d="M16 32C24.8366 32 32 24.8366 32 16C32 7.16344 24.8366 0 16 0C7.16344 0 0 7.16344 0 16C0 24.8366 7.16344 32 16 32ZM16.625 11.0128V13.3058H20L18.875 16.1721H16.625V25.3441H13.25V16.1721H11V13.3058H13.25V10.4395C13.25 8.53976 14.7609 7 16.625 7H18.875V9.86627H17.75C17.129 9.86627 16.625 10.3799 16.625 11.0128Z" fill="#534E4A"/>
<defs>
<clipPath id="clip0">
<rect width="32" height="32" fill="white" transform="translate(156 1)"/>
</clipPath>
</defs>
</svg>
